<?xml version="1.0"?>
<svg xmlns="http://www.w3.org/2000/svg" xmlns:xlink="http://www.w3.org/1999/xlink" version="1.1" id="Capa_1" x="0px" y="0px" viewBox="0 0 512 512" style="enable-background:new 0 0 512 512;" xml:space="preserve" width="512px" height="512px"><g><g>
	<g>
		<path d="M257,0C116.39,0,0,114.39,0,255s116.39,257,257,257s255-116.39,255-257S397.61,0,257,0z M392,285H287v107    c0,16.54-13.47,30-30,30c-16.54,0-30-13.46-30-30V285H120c-16.54,0-30-13.46-30-30c0-16.54,13.46-30,30-30h107V120    c0-16.54,13.46-30,30-30c16.53,0,30,13.46,30,30v105h105c16.53,0,30,13.46,30,30S408.53,285,392,285z" data-original="#000000" class="active-path" data-old_color="#000000" fill="#FFFFFF"/>
	</g>
</g></g> </svg>
